<?xml version="1.0" encoding="UTF-8" standalone="no"?>
<!-- Created with Inkscape (http://www.inkscape.org/) -->

<svg
   xmlns:dc="http://purl.org/dc/elements/1.1/"
   xmlns:cc="http://creativecommons.org/ns#"
   xmlns:rdf="http://www.w3.org/1999/02/22-rdf-syntax-ns#"
   xmlns:svg="http://www.w3.org/2000/svg"
   xmlns="http://www.w3.org/2000/svg"
   xmlns:sodipodi="http://sodipodi.sourceforge.net/DTD/sodipodi-0.dtd"
   xmlns:inkscape="http://www.inkscape.org/namespaces/inkscape"
   width="38"
   height="150"
   id="svg2"
   version="1.1"
   inkscape:version="0.48.5 r10040"
   sodipodi:docname="bg-pattern2.svg">
  <defs
     id="defs4">
    <inkscape:path-effect
       effect="spiro"
       id="path-effect2991"
       is_visible="true" />
  </defs>
  <sodipodi:namedview
     id="base"
     pagecolor="#ffffff"
     bordercolor="#666666"
     borderopacity="1.0"
     inkscape:pageopacity="0.0"
     inkscape:pageshadow="2"
     inkscape:zoom="2.8284271"
     inkscape:cx="119.05454"
     inkscape:cy="81.565932"
     inkscape:document-units="px"
     inkscape:current-layer="layer1"
     showgrid="false"
     inkscape:window-width="1366"
     inkscape:window-height="706"
     inkscape:window-x="-8"
     inkscape:window-y="-8"
     inkscape:window-maximized="1" />
  <metadata
     id="metadata7">
    <rdf:RDF>
      <cc:Work
         rdf:about="">
        <dc:format>image/svg+xml</dc:format>
        <dc:type
           rdf:resource="http://purl.org/dc/dcmitype/StillImage" />
        <dc:title />
      </cc:Work>
    </rdf:RDF>
  </metadata>
  <g
     inkscape:label="Layer 1"
     inkscape:groupmode="layer"
     id="layer1"
     transform="translate(0,-902.36)">
    <path
       sodipodi:type="arc"
       style="opacity:0.45000000000000001;color:#000000;fill:#ffffff;fill-opacity:1;fill-rule:nonzero;stroke:none;stroke-width:0.50000000000000000;marker:none;visibility:visible;display:inline;overflow:visible;enable-background:accumulate"
       id="path2999"
       sodipodi:cx="-125.94209"
       sodipodi:cy="100.71832"
       sodipodi:rx="21.03838"
       sodipodi:ry="21.03838"
       d="m -104.90371,100.71832 c 0,11.61918 -9.41921,21.03838 -21.03838,21.03838 -11.61918,0 -21.03838,-9.4192 -21.03838,-21.03838 0,-11.619173 9.4192,-21.038377 21.03838,-21.038377 11.61917,0 21.03838,9.419204 21.03838,21.038377 z"
       transform="matrix(0.09960448,0,0,0.09960448,50.383512,962.93371)" />
    <path
       transform="matrix(0.09960448,0,0,0.09960448,50.47911,1002.447)"
       d="m -104.90371,100.71832 a 21.03838,21.03838 0 1 1 -42.07676,0 21.03838,21.03838 0 1 1 42.07676,0 z"
       sodipodi:ry="21.03838"
       sodipodi:rx="21.03838"
       sodipodi:cy="100.71832"
       sodipodi:cx="-125.94209"
       id="path3070"
       style="opacity:0.45000000000000001;color:#000000;fill:#ffffff;fill-opacity:1;fill-rule:nonzero;stroke:none;stroke-width:0.50000000000000000;marker:none;visibility:visible;display:inline;overflow:visible;enable-background:accumulate"
       sodipodi:type="arc" />
    <path
       transform="matrix(0.2615958,0,0,0.2615958,69.302583,1019.3526)"
       d="m -104.90371,100.71832 c 0,11.61918 -9.41921,21.03838 -21.03838,21.03838 -11.61918,0 -21.03838,-9.4192 -21.03838,-21.03838 0,-11.619173 9.4192,-21.038377 21.03838,-21.038377 11.61917,0 21.03838,9.419204 21.03838,21.038377 z"
       sodipodi:ry="21.03838"
       sodipodi:rx="21.03838"
       sodipodi:cy="100.71832"
       sodipodi:cx="-125.94209"
       id="path3078"
       style="opacity:0.45000000000000001;color:#000000;fill:#ffffff;fill-opacity:1;fill-rule:nonzero;stroke:none;stroke-width:0.50000000000000000;marker:none;visibility:visible;display:inline;overflow:visible;enable-background:accumulate"
       sodipodi:type="arc" />
    <path
       transform="matrix(0.09960448,0,0,0.09960448,47.789739,881.37396)"
       d="m -104.90371,100.71832 c 0,11.61918 -9.41921,21.03838 -21.03838,21.03838 -11.61918,0 -21.03838,-9.4192 -21.03838,-21.03838 0,-11.619173 9.4192,-21.038377 21.03838,-21.038377 11.61917,0 21.03838,9.419204 21.03838,21.038377 z"
       sodipodi:ry="21.03838"
       sodipodi:rx="21.03838"
       sodipodi:cy="100.71832"
       sodipodi:cx="-125.94209"
       id="path3080"
       style="opacity:0.45000000000000001;color:#000000;fill:#ffffff;fill-opacity:1;fill-rule:nonzero;stroke:none;stroke-width:0.50000000000000000;marker:none;visibility:visible;display:inline;overflow:visible;enable-background:accumulate"
       sodipodi:type="arc" />
    <path
       transform="matrix(0.16768779,0,0,0.16768779,54.815496,883.07907)"
       d="m -104.90371,100.71832 c 0,11.61918 -9.41921,21.03838 -21.03838,21.03838 -11.61918,0 -21.03838,-9.4192 -21.03838,-21.03838 0,-11.619173 9.4192,-21.038377 21.03838,-21.038377 11.61917,0 21.03838,9.419204 21.03838,21.038377 z"
       sodipodi:ry="21.03838"
       sodipodi:rx="21.03838"
       sodipodi:cy="100.71832"
       sodipodi:cx="-125.94209"
       id="path3082"
       style="opacity:0.45000000000000001;color:#000000;fill:#ffffff;fill-opacity:1;fill-rule:nonzero;stroke:none;stroke-width:0.50000000000000000;marker:none;visibility:visible;display:inline;overflow:visible;enable-background:accumulate"
       sodipodi:type="arc" />
    <path
       style="opacity:0.45000000000000001;color:#000000;fill:#ffffff;fill-opacity:1;fill-rule:nonzero;stroke:none;stroke-width:0.50000000000000000;marker:none;visibility:visible;display:inline;overflow:visible;enable-background:accumulate"
       d="m 39.446457,905.28908 c -0.797907,-0.65045 -1.795474,-0.88041 -2.740968,-0.74266 l -0.05053,1.24898 -0.386749,0.12822 -0.703222,-1.01676 c -0.405498,0.21439 -0.779015,0.5105 -1.086788,0.88804 -1.231093,1.51018 -1.004365,3.73717 0.505818,4.96826 1.510181,1.23109 3.712944,0.98462 4.944038,-0.52556 1.231092,-1.51018 1.028585,-3.71742 -0.481596,-4.94852 z m -3.068482,-0.6871 c -0.169483,0.0409 -0.331873,0.0955 -0.494429,0.16139 l 0.500497,0.77086 -0.0061,-0.93225 z"
       id="path3084"
       inkscape:connector-curvature="0" />
    <path
       style="opacity:0.45000000000000001;color:#000000;fill:#ffffff;fill-opacity:1;fill-rule:nonzero;stroke:none;stroke-width:0.50000000000000000;marker:none;visibility:visible;display:inline;overflow:visible;enable-background:accumulate"
       d="m 34.4375,10.375 c -0.887371,0.181582 -1.5625,0.965199 -1.5625,1.90625 0,1.075487 0.893263,1.9375 1.96875,1.9375 1.075486,0 1.9375,-0.862013 1.9375,-1.9375 0,-0.627914 -0.319856,-1.175147 -0.78125,-1.53125 l -0.105469,0.375 -0.421875,-0.08594 -0.253906,0.992187 -0.4375,-0.125 L 35.011719,10.91406 34.503906,10.785156 34.625,10.375 c -0.07946,-0.01684 -0.129336,-0.0119 -0.1875,0 z"
       transform="translate(0,902.36)"
       id="path3086"
       inkscape:connector-curvature="0"
       sodipodi:nodetypes="ssssccccccccs" />
    <path
       style="opacity:0.45000000000000001;color:#000000;fill:#ffffff;fill-opacity:1;fill-rule:nonzero;stroke:none;stroke-width:0.50000000000000000;marker:none;visibility:visible;display:inline;overflow:visible;enable-background:accumulate"
       d="m 36.469994,918.67688 -0.571653,1.56979 -0.472262,-0.17571 -0.232863,-1.10815 -0.350242,0.87465 -0.457817,-0.20342 0.611448,-1.44331 c -2.299782,-0.40323 -4.712947,0.72559 -5.849753,2.90627 -1.405069,2.69527 -0.360658,6.01447 2.334618,7.41954 2.695274,1.40506 6.01447,0.36065 7.419539,-2.33462 1.405069,-2.69528 0.375102,-6.04218 -2.320172,-7.44725 -0.03732,-0.0195 -0.07329,-0.0393 -0.110843,-0.0578 z m -0.457817,-0.20342 c -0.133643,-0.0515 -0.268119,-0.0642 -0.403576,-0.10466 l 0.108756,1.00821 0.29482,-0.90355 z"
       id="path3088"
       inkscape:connector-curvature="0" />
    <path
       sodipodi:type="arc"
       style="opacity:0.45000000000000001;color:#000000;fill:#ffffff;fill-opacity:1;fill-rule:nonzero;stroke:none;stroke-width:0.50000000000000000;marker:none;visibility:visible;display:inline;overflow:visible;enable-background:accumulate"
       id="path3090"
       sodipodi:cx="-125.94209"
       sodipodi:cy="100.71832"
       sodipodi:rx="21.03838"
       sodipodi:ry="21.03838"
       d="m -104.90371,100.71832 c 0,11.61918 -9.41921,21.03838 -21.03838,21.03838 -11.61918,0 -21.03838,-9.4192 -21.03838,-21.03838 0,-11.619173 9.4192,-21.038377 21.03838,-21.038377 11.61917,0 21.03838,9.419204 21.03838,21.038377 z"
       transform="matrix(0.09960448,0,0,0.09960448,47.510337,921.88725)" />
    <path
       sodipodi:type="arc"
       style="opacity:0.45000000000000001;color:#000000;fill:#ffffff;fill-opacity:1;fill-rule:nonzero;stroke:none;stroke-width:0.50000000000000000;marker:none;visibility:visible;display:inline;overflow:visible;enable-background:accumulate"
       id="path3098"
       sodipodi:cx="-125.94209"
       sodipodi:cy="100.71832"
       sodipodi:rx="21.03838"
       sodipodi:ry="21.03838"
       d="m -104.90371,100.71832 c 0,11.61918 -9.41921,21.03838 -21.03838,21.03838 -11.61918,0 -21.03838,-9.4192 -21.03838,-21.03838 0,-11.619173 9.4192,-21.038377 21.03838,-21.038377 11.61917,0 21.03838,9.419204 21.03838,21.038377 z"
       transform="matrix(0.2615958,0,0,0.2615958,66.70881,937.79285)" />
    <text
       sodipodi:linespacing="125%"
       id="text3104"
       y="907.74609"
       x="62.121044"
       style="font-size:1.63975382px;font-style:normal;font-variant:normal;font-weight:normal;font-stretch:normal;text-align:end;line-height:125%;letter-spacing:0px;word-spacing:0px;writing-mode:lr-tb;text-anchor:end;opacity:0.61000001;fill:#ff6600;fill-opacity:1;stroke:none;font-family:Adobe Arabic;-inkscape-font-specification:Adobe Arabic"
       xml:space="preserve"><tspan
         style="font-style:normal;font-variant:normal;font-weight:bold;font-stretch:normal;fill:#ff6600;font-family:Arial Black;-inkscape-font-specification:Arial Black"
         y="907.74609"
         x="62.121044"
         id="tspan3106"
         sodipodi:role="line">V</tspan></text>
    <text
       transform="matrix(0.85866255,-0.51254134,0.51254134,0.85866255,0,0)"
       xml:space="preserve"
       style="font-size:1.63975382px;font-style:normal;font-variant:normal;font-weight:normal;font-stretch:normal;text-align:end;line-height:125%;letter-spacing:0px;word-spacing:0px;writing-mode:lr-tb;text-anchor:end;opacity:0.61000001;fill:#ff6600;fill-opacity:1;stroke:none;font-family:Adobe Arabic;-inkscape-font-specification:Adobe Arabic"
       x="-420.55417"
       y="823.85962"
       id="text3115"
       sodipodi:linespacing="125%"><tspan
         sodipodi:role="line"
         id="tspan3117"
         x="-420.55417"
         y="823.85962"
         style="font-style:normal;font-variant:normal;font-weight:bold;font-stretch:normal;fill:#ff6600;font-family:Arial Black;-inkscape-font-specification:Arial Black">T</tspan></text>
    <text
       transform="matrix(0.86653267,0.49912036,-0.49912036,0.86653267,0,0)"
       sodipodi:linespacing="125%"
       id="text3119"
       y="785.71326"
       x="520.65356"
       style="font-size:1.63975382px;font-style:normal;font-variant:normal;font-weight:normal;font-stretch:normal;text-align:end;line-height:125%;letter-spacing:0px;word-spacing:0px;writing-mode:lr-tb;text-anchor:end;opacity:0.61000001;fill:#ff6600;fill-opacity:1;stroke:none;font-family:Adobe Arabic;-inkscape-font-specification:Adobe Arabic"
       xml:space="preserve"><tspan
         style="font-style:normal;font-variant:normal;font-weight:bold;font-stretch:normal;fill:#ff6600;font-family:Arial Black;-inkscape-font-specification:Arial Black"
         y="785.71326"
         x="520.65356"
         id="tspan3121"
         sodipodi:role="line">N</tspan></text>
    <text
       sodipodi:linespacing="125%"
       id="text3139"
       y="1021.8027"
       x="62.227695"
       style="font-size:1.63975382px;font-style:normal;font-variant:normal;font-weight:normal;font-stretch:normal;text-align:end;line-height:125%;letter-spacing:0px;word-spacing:0px;writing-mode:lr-tb;text-anchor:end;opacity:0.61000001;fill:#ff6600;fill-opacity:1;stroke:none;font-family:Adobe Arabic;-inkscape-font-specification:Adobe Arabic"
       xml:space="preserve"><tspan
         style="font-style:normal;font-variant:normal;font-weight:bold;font-stretch:normal;fill:#ff6600;font-family:Arial Black;-inkscape-font-specification:Arial Black"
         y="1021.8027"
         x="62.227695"
         id="tspan3141"
         sodipodi:role="line">V</tspan></text>
    <text
       xml:space="preserve"
       style="font-size:1.63975382px;font-style:normal;font-variant:normal;font-weight:normal;font-stretch:normal;text-align:end;line-height:125%;letter-spacing:0px;word-spacing:0px;writing-mode:lr-tb;text-anchor:end;opacity:0.61000001;fill:#ff6600;fill-opacity:1;stroke:none;font-family:Adobe Arabic;-inkscape-font-specification:Adobe Arabic"
       x="60.800957"
       y="1030.4044"
       id="text3143"
       sodipodi:linespacing="125%"><tspan
         sodipodi:role="line"
         id="tspan3145"
         x="60.800957"
         y="1030.4044"
         style="font-style:normal;font-variant:normal;font-weight:bold;font-stretch:normal;fill:#ff6600;font-family:Arial Black;-inkscape-font-specification:Arial Black">T</tspan></text>
    <text
       sodipodi:linespacing="125%"
       id="text3147"
       y="1036.3585"
       x="62.612537"
       style="font-size:1.63975382px;font-style:normal;font-variant:normal;font-weight:normal;font-stretch:normal;text-align:end;line-height:125%;letter-spacing:0px;word-spacing:0px;writing-mode:lr-tb;text-anchor:end;opacity:0.61000001;fill:#ff6600;fill-opacity:1;stroke:none;font-family:Adobe Arabic;-inkscape-font-specification:Adobe Arabic"
       xml:space="preserve"><tspan
         style="font-style:normal;font-variant:normal;font-weight:bold;font-stretch:normal;fill:#ff6600;font-family:Arial Black;-inkscape-font-specification:Arial Black"
         y="1036.3585"
         x="62.612537"
         id="tspan3149"
         sodipodi:role="line">N</tspan></text>
    <text
       xml:space="preserve"
       style="font-size:1.63975382px;font-style:normal;font-variant:normal;font-weight:normal;font-stretch:normal;text-align:end;line-height:125%;letter-spacing:0px;word-spacing:0px;writing-mode:lr-tb;text-anchor:end;opacity:0.61000001;fill:#ff6600;fill-opacity:1;stroke:none;font-family:Adobe Arabic;-inkscape-font-specification:Adobe Arabic"
       x="62.856388"
       y="972.72131"
       id="text3151"
       sodipodi:linespacing="125%"><tspan
         sodipodi:role="line"
         id="tspan3153"
         x="62.856388"
         y="972.72131"
         style="font-style:normal;font-variant:normal;font-weight:bold;font-stretch:normal;fill:#ff6600;font-family:Arial Black;-inkscape-font-specification:Arial Black">V</tspan></text>
    <text
       sodipodi:linespacing="125%"
       id="text3155"
       y="989.07086"
       x="62.92535"
       style="font-size:1.63975382px;font-style:normal;font-variant:normal;font-weight:normal;font-stretch:normal;text-align:end;line-height:125%;letter-spacing:0px;word-spacing:0px;writing-mode:lr-tb;text-anchor:end;opacity:0.61000001;fill:#ff6600;fill-opacity:1;stroke:none;font-family:Adobe Arabic;-inkscape-font-specification:Adobe Arabic"
       xml:space="preserve"><tspan
         style="font-style:normal;font-variant:normal;font-weight:bold;font-stretch:normal;fill:#ff6600;font-family:Arial Black;-inkscape-font-specification:Arial Black"
         y="989.07086"
         x="62.92535"
         id="tspan3157"
         sodipodi:role="line">T</tspan></text>
    <text
       xml:space="preserve"
       style="font-size:1.63975382px;font-style:normal;font-variant:normal;font-weight:normal;font-stretch:normal;text-align:end;line-height:125%;letter-spacing:0px;word-spacing:0px;writing-mode:lr-tb;text-anchor:end;opacity:0.61000001;fill:#ff6600;fill-opacity:1;stroke:none;font-family:Adobe Arabic;-inkscape-font-specification:Adobe Arabic"
       x="61.258083"
       y="1004.5729"
       id="text3159"
       sodipodi:linespacing="125%"><tspan
         sodipodi:role="line"
         id="tspan3161"
         x="61.258083"
         y="1004.5729"
         style="font-style:normal;font-variant:normal;font-weight:bold;font-stretch:normal;fill:#ff6600;font-family:Arial Black;-inkscape-font-specification:Arial Black">N</tspan></text>
    <text
       xml:space="preserve"
       style="font-size:1.63975382px;font-style:normal;font-variant:normal;font-weight:normal;font-stretch:normal;text-align:end;line-height:125%;letter-spacing:0px;word-spacing:0px;writing-mode:lr-tb;text-anchor:end;opacity:0.75960005;fill:#000000;fill-opacity:1;stroke:none;font-family:Adobe Arabic;-inkscape-font-specification:Adobe Arabic"
       x="111.79758"
       y="940.61963"
       id="text3163"
       sodipodi:linespacing="125%"><tspan
         sodipodi:role="line"
         id="tspan3165"
         x="111.79758"
         y="940.61963"
         style="font-style:normal;font-variant:normal;font-weight:bold;font-stretch:normal;fill:#000000;font-family:Arial Black;-inkscape-font-specification:Arial Black">V</tspan></text>
    <text
       sodipodi:linespacing="125%"
       id="text3167"
       y="948.58887"
       x="114.37802"
       style="font-size:1.63975382px;font-style:normal;font-variant:normal;font-weight:normal;font-stretch:normal;text-align:end;line-height:125%;letter-spacing:0px;word-spacing:0px;writing-mode:lr-tb;text-anchor:end;opacity:0.75960005;fill:#000000;fill-opacity:1;stroke:none;font-family:Adobe Arabic;-inkscape-font-specification:Adobe Arabic"
       xml:space="preserve"><tspan
         style="font-style:normal;font-variant:normal;font-weight:bold;font-stretch:normal;fill:#000000;font-family:Arial Black;-inkscape-font-specification:Arial Black"
         y="948.58887"
         x="114.37802"
         id="tspan3169"
         sodipodi:role="line">T</tspan></text>
    <text
       xml:space="preserve"
       style="font-size:1.63975382px;font-style:normal;font-variant:normal;font-weight:normal;font-stretch:normal;text-align:end;line-height:125%;letter-spacing:0px;word-spacing:0px;writing-mode:lr-tb;text-anchor:end;opacity:0.75960005;fill:#000000;fill-opacity:1;stroke:none;font-family:Adobe Arabic;-inkscape-font-specification:Adobe Arabic"
       x="113.28716"
       y="955.54388"
       id="text3171"
       sodipodi:linespacing="125%"><tspan
         sodipodi:role="line"
         id="tspan3173"
         x="113.28716"
         y="955.54388"
         style="font-style:normal;font-variant:normal;font-weight:bold;font-stretch:normal;fill:#000000;font-family:Arial Black;-inkscape-font-specification:Arial Black">N</tspan></text>
    <text
       sodipodi:linespacing="125%"
       id="text3175"
       y="940.61963"
       x="111.79758"
       style="font-size:1.63975382px;font-style:normal;font-variant:normal;font-weight:normal;font-stretch:normal;text-align:end;line-height:125%;letter-spacing:0px;word-spacing:0px;writing-mode:lr-tb;text-anchor:end;opacity:0.75960005;fill:#000000;fill-opacity:1;stroke:none;font-family:Adobe Arabic;-inkscape-font-specification:Adobe Arabic"
       xml:space="preserve"><tspan
         style="font-style:normal;font-variant:normal;font-weight:bold;font-stretch:normal;fill:#000000;font-family:Arial Black;-inkscape-font-specification:Arial Black"
         y="940.61963"
         x="111.79758"
         id="tspan3177"
         sodipodi:role="line">V</tspan></text>
    <text
       xml:space="preserve"
       style="font-size:1.63975382px;font-style:normal;font-variant:normal;font-weight:normal;font-stretch:normal;text-align:end;line-height:125%;letter-spacing:0px;word-spacing:0px;writing-mode:lr-tb;text-anchor:end;opacity:0.75960005;fill:#000000;fill-opacity:1;stroke:none;font-family:Adobe Arabic;-inkscape-font-specification:Adobe Arabic"
       x="114.37802"
       y="948.58887"
       id="text3179"
       sodipodi:linespacing="125%"><tspan
         sodipodi:role="line"
         id="tspan3181"
         x="114.37802"
         y="948.58887"
         style="font-style:normal;font-variant:normal;font-weight:bold;font-stretch:normal;fill:#000000;font-family:Arial Black;-inkscape-font-specification:Arial Black">T</tspan></text>
    <text
       sodipodi:linespacing="125%"
       id="text3183"
       y="955.54388"
       x="113.28716"
       style="font-size:1.63975382px;font-style:normal;font-variant:normal;font-weight:normal;font-stretch:normal;text-align:end;line-height:125%;letter-spacing:0px;word-spacing:0px;writing-mode:lr-tb;text-anchor:end;opacity:0.75960005;fill:#000000;fill-opacity:1;stroke:none;font-family:Adobe Arabic;-inkscape-font-specification:Adobe Arabic"
       xml:space="preserve"><tspan
         style="font-style:normal;font-variant:normal;font-weight:bold;font-stretch:normal;fill:#000000;font-family:Arial Black;-inkscape-font-specification:Arial Black"
         y="955.54388"
         x="113.28716"
         id="tspan3185"
         sodipodi:role="line">N</tspan></text>
    <g
       style="font-size:1.63975381999999990px;font-style:normal;font-variant:normal;font-weight:normal;font-stretch:normal;text-align:end;line-height:125%;letter-spacing:0px;word-spacing:0px;writing-mode:lr-tb;text-anchor:end;opacity:1;fill:#ffffff;fill-opacity:1;stroke:none;font-family:Adobe Arabic;-inkscape-font-specification:Adobe Arabic"
       id="text3089"
       transform="matrix(0.55258488,-0.83345663,0.83345663,0.55258488,-741.76889,433.7714)" />
    <g
       transform="matrix(0.55258488,-0.83345663,0.83345663,0.55258488,-714.28012,439.8923)"
       id="g3097"
       style="font-size:1.63975382px;font-style:normal;font-variant:normal;font-weight:normal;font-stretch:normal;text-align:end;line-height:125%;letter-spacing:0px;word-spacing:0px;writing-mode:lr-tb;text-anchor:end;opacity:0.61000001;fill:#ff6600;fill-opacity:1;stroke:none;font-family:Adobe Arabic;-inkscape-font-specification:Adobe Arabic">
      <path
         sodipodi:nodetypes="cccccccc"
         inkscape:connector-curvature="0"
         id="path3099"
         style="font-weight:bold;fill:#ff6600;font-family:Arial Black;-inkscape-font-specification:Arial Black"
         d="m 34.484306,907.84356 c 0.12912,-0.0343 0.258205,-0.0552 0.38723,-0.052 l 0.256502,0.89668 0.258724,-0.9002 c 0.124001,0.006 0.243214,0.0133 0.385012,0.036 l -0.450777,1.19323 -0.393125,0 z" />
    </g>
    <g
       transform="matrix(1.252083,0.27707157,-0.27707157,1.252083,808.18959,30.940599)"
       style="font-size:1.63975382px;font-style:normal;font-variant:normal;font-weight:normal;font-stretch:normal;text-align:end;line-height:125%;letter-spacing:0px;word-spacing:0px;writing-mode:lr-tb;text-anchor:end;opacity:0.61000001;fill:#ff6600;fill-opacity:1;stroke:none;font-family:Adobe Arabic;-inkscape-font-specification:Adobe Arabic"
       id="text3125" />
    <g
       transform="matrix(0.996223,-0.08683164,0.08683164,0.996223,0,0)"
       style="font-size:2.37481904px;font-style:normal;font-variant:normal;font-weight:normal;font-stretch:normal;text-align:end;line-height:125%;letter-spacing:0px;word-spacing:0px;writing-mode:lr-tb;text-anchor:end;opacity:0.61000001;fill:#ff6600;fill-opacity:1;stroke:none;font-family:Adobe Arabic;-inkscape-font-specification:Adobe Arabic"
       id="text3134" />
    <path
       inkscape:connector-curvature="0"
       id="path3143"
       d="m 36.390519,938.39574 c -0.548875,-0.8709 -1.421058,-1.40692 -2.361126,-1.57782 l -0.446116,1.16768 -0.407445,-0.002 -0.342339,-1.18791 c -0.45269,0.0739 -0.901124,0.23548 -1.313208,0.49519 -1.648345,1.03884 -2.143499,3.22189 -1.104653,4.87023 1.038845,1.64834 3.205228,2.11706 4.853573,1.07822 1.648344,-1.03884 2.160158,-3.19545 1.121317,-4.8438 z m -2.689262,-1.62958 c -0.173678,-0.0153 -0.345001,-0.0153 -0.520081,-0.005 l 0.228596,0.89021 0.291455,-0.88554 z"
       style="opacity:0.45000000000000001;color:#000000;fill:#ffffff;fill-opacity:1;fill-rule:nonzero;stroke:none;stroke-width:0.50000000000000000;marker:none;visibility:visible;display:inline;overflow:visible;enable-background:accumulate" />
    <path
       sodipodi:nodetypes="ssssccccccccs"
       inkscape:connector-curvature="0"
       id="path3145"
       d="m 33.994975,945.78849 c -1.283175,0.98535 -1.754842,2.77163 -1.019139,4.28299 0.84078,1.72724 2.94928,2.41333 4.676529,1.57254 1.727246,-0.84079 2.437747,-2.89911 1.596967,-4.62634 -0.490891,-1.00845 -1.432397,-1.63726 -2.451788,-1.84845 l 0.123776,0.6847 -0.74469,0.19186 0.367885,1.79196 -0.800352,0.14127 -0.40553,-1.77364 -0.916335,0.18996 -0.126164,-0.75337 c -0.140745,0.0351 -0.217039,0.082 -0.301128,0.14658 z"
       style="opacity:0.45000000000000001;color:#000000;fill:#ffffff;fill-opacity:1;fill-rule:nonzero;stroke:none;stroke-width:0.50000000000000000;marker:none;visibility:visible;display:inline;overflow:visible;enable-background:accumulate" />
    <path
       inkscape:connector-curvature="0"
       id="path3147"
       d="m 35.372871,953.44856 -0.202443,0.55593 -0.167244,-0.0623 -0.08246,-0.39243 -0.124039,0.30974 -0.16213,-0.0721 0.216536,-0.51112 c -0.814433,-0.14284 -1.669018,0.25695 -2.071601,1.02922 -0.497584,0.95448 -0.127722,2.12993 0.826769,2.62752 0.954491,0.49757 2.129934,0.12765 2.627516,-0.82678 0.497585,-0.95449 0.132832,-2.13975 -0.821654,-2.63732 -0.01319,-0.007 -0.02596,-0.0138 -0.03925,-0.0204 z m -0.16213,-0.072 c -0.04733,-0.0182 -0.09494,-0.0227 -0.142912,-0.0371 l 0.03852,0.35703 0.104398,-0.31998 z"
       style="opacity:0.45000000000000001;color:#000000;fill:#ffffff;fill-opacity:1;fill-rule:nonzero;stroke:none;stroke-width:0.50000000000000000;marker:none;visibility:visible;display:inline;overflow:visible;enable-background:accumulate" />
    <path
       inkscape:connector-curvature="0"
       id="path3149"
       d="m 39.027363,977.76233 c -0.911236,-0.74283 -2.050491,-1.00546 -3.130276,-0.84814 l -0.05771,1.42638 -0.44168,0.14643 -0.803103,-1.16118 c -0.463092,0.24484 -0.889661,0.58301 -1.241148,1.01417 -1.405949,1.72468 -1.147018,4.26798 0.577661,5.67392 1.724677,1.40595 4.240305,1.12447 5.646255,-0.6002 1.405948,-1.72468 1.174678,-4.24542 -0.549998,-5.65138 z m -3.504308,-0.78469 c -0.193555,0.0467 -0.37901,0.10906 -0.564654,0.18431 l 0.571584,0.88035 -0.007,-1.06466 z"
       style="opacity:0.45000000000000001;color:#000000;fill:#ffffff;fill-opacity:1;fill-rule:nonzero;stroke:none;stroke-width:0.50000000000000000;marker:none;visibility:visible;display:inline;overflow:visible;enable-background:accumulate" />
    <path
       sodipodi:nodetypes="ssssccccccccs"
       inkscape:connector-curvature="0"
       id="path3151"
       d="m 34.265928,988.55831 c -0.442992,1.70084 0.344118,3.54713 1.983067,4.3523 1.873108,0.92021 4.138692,0.10203 5.058894,-1.77106 0.920202,-1.8731 0.15646,-4.11195 -1.716648,-5.03216 -1.093578,-0.53725 -2.32032,-0.44839 -3.335313,0.0505 l 0.562871,0.50455 -0.510564,0.66125 1.510775,1.29114 -0.592039,0.65501 -1.530828,-1.25032 -0.658984,0.77413 -0.610741,-0.56184 c -0.09725,0.12401 -0.131395,0.21507 -0.160428,0.32655 z"
       style="opacity:0.45000000000000001;color:#000000;fill:#ffffff;fill-opacity:1;fill-rule:nonzero;stroke:none;stroke-width:0.50000000000000000;marker:none;visibility:visible;display:inline;overflow:visible;enable-background:accumulate" />
    <path
       inkscape:connector-curvature="0"
       id="path3153"
       d="m 36.587813,996.28235 0.06531,1.68831 -0.509344,0.0162 -0.641903,-0.94837 0.0067,0.95282 -0.506419,-0.0153 0.02033,-1.58512 c -2.307292,0.50223 -4.13469,2.48212 -4.364799,4.95857 -0.284403,3.0608 1.963046,5.7687 5.023797,6.053 3.060786,0.2844 5.768713,-1.963 6.05313,-5.0238 0.284379,-3.06083 -1.960119,-5.80013 -5.020901,-6.08454 -0.04239,-0.004 -0.08363,-0.009 -0.125898,-0.0117 z m -0.506419,-0.0153 c -0.144822,0.003 -0.27556,0.0425 -0.417864,0.0564 l 0.487486,0.90228 -0.06962,-0.95868 z"
       style="opacity:0.45000000000000001;color:#000000;fill:#ffffff;fill-opacity:1;fill-rule:nonzero;stroke:none;stroke-width:0.50000000000000000;marker:none;visibility:visible;display:inline;overflow:visible;enable-background:accumulate" />
    <path
       style="opacity:0.45000000000000001;color:#000000;fill:#ffffff;fill-opacity:1;fill-rule:nonzero;stroke:none;stroke-width:0.50000000000000000;marker:none;visibility:visible;display:inline;overflow:visible;enable-background:accumulate"
       d="m 36.47637,1019.6307 c -0.136018,-1.0065 -0.699468,-1.8448 -1.473237,-2.3832 l -0.878684,0.8656 -0.36493,-0.1685 0.179109,-1.2065 c -0.436596,-0.119 -0.905245,-0.1576 -1.381495,-0.093 -1.905,0.2575 -3.243333,2.0143 -2.985812,3.9192 0.257453,1.9051 2.010192,3.2128 3.915124,2.9553 1.904999,-0.2576 3.24745,-1.9837 2.98993,-3.8887 z m -1.74657,-2.564 c -0.150084,-0.084 -0.303263,-0.1552 -0.464967,-0.2171 l -0.159307,0.8926 0.624265,-0.6755 z"
       id="path3155"
       inkscape:connector-curvature="0" />
    <path
       style="opacity:0.45000000000000001;color:#000000;fill:#ffffff;fill-opacity:1;fill-rule:nonzero;stroke:none;stroke-width:0.50000000000000000;marker:none;visibility:visible;display:inline;overflow:visible;enable-background:accumulate"
       d="m 31.78047,1027.6492 c -1.285011,1.4296 -1.448135,3.6186 -0.260678,5.2244 1.357169,1.8352 3.96916,2.1788 5.804301,0.8216 1.835096,-1.3571 2.21821,-3.9157 0.861042,-5.7508 -0.792342,-1.0714 -2.028677,-1.6016 -3.265704,-1.6263 l 0.293299,0.7729 -0.828295,0.3859 0.818791,2.0134 -0.904224,0.3387 -0.858809,-1.9838 -1.029123,0.4208 -0.310993,-0.8526 c -0.156773,0.072 -0.235703,0.1429 -0.31996,0.2367 z"
       id="path3157"
       inkscape:connector-curvature="0"
       sodipodi:nodetypes="ssssccccccccs" />
    <path
       style="opacity:0.45000000000000001;color:#000000;fill:#ffffff;fill-opacity:1;fill-rule:nonzero;stroke:none;stroke-width:0.50000000000000000;marker:none;visibility:visible;display:inline;overflow:visible;enable-background:accumulate"
       d="m 37.326409,1034.762 0.01506,0.6966 -0.170539,-0 -0.224767,-0.426 -0.02114,0.4157 -0.177327,-0.011 -0.01243,-0.6253 c -0.807918,0.1758 -1.404828,0.8574 -1.485403,1.7246 -0.09958,1.0717 0.687378,2.0199 1.759125,2.1194 1.071761,0.099 2.019965,-0.6873 2.119556,-1.7591 0.09957,-1.0718 -0.686353,-2.0309 -1.758112,-2.1305 -0.01485,0 -0.02928,0 -0.04409,0 z m -0.177327,0 c -0.05071,0 -0.15899,0.019 -0.208819,0.024 l 0.252729,0.4605 -0.04391,-0.4841 z"
       id="path3159"
       inkscape:connector-curvature="0"
       sodipodi:nodetypes="cccccccscccccscccs" />
  </g>
</svg>
