<?xml version="1.0" encoding="UTF-8" standalone="no"?>
<!-- Created with Inkscape (http://www.inkscape.org/) -->

<svg
   xmlns:dc="http://purl.org/dc/elements/1.1/"
   xmlns:cc="http://creativecommons.org/ns#"
   xmlns:rdf="http://www.w3.org/1999/02/22-rdf-syntax-ns#"
   xmlns:svg="http://www.w3.org/2000/svg"
   xmlns="http://www.w3.org/2000/svg"
   xmlns:sodipodi="http://sodipodi.sourceforge.net/DTD/sodipodi-0.dtd"
   xmlns:inkscape="http://www.inkscape.org/namespaces/inkscape"
   width="38"
   height="150"
   id="svg2"
   version="1.1"
   inkscape:version="0.48.5 r10040"
   sodipodi:docname="mark.svg">
  <defs
     id="defs4">
    <inkscape:path-effect
       effect="spiro"
       id="path-effect2991"
       is_visible="true" />
  </defs>
  <sodipodi:namedview
     id="base"
     pagecolor="#ffffff"
     bordercolor="#666666"
     borderopacity="1.0"
     inkscape:pageopacity="0.0"
     inkscape:pageshadow="2"
     inkscape:zoom="12.826667"
     inkscape:cx="28.577554"
     inkscape:cy="115.37728"
     inkscape:document-units="px"
     inkscape:current-layer="layer1"
     showgrid="false"
     inkscape:window-width="1366"
     inkscape:window-height="706"
     inkscape:window-x="-8"
     inkscape:window-y="-8"
     inkscape:window-maximized="1" />
  <metadata
     id="metadata7">
    <rdf:RDF>
      <cc:Work
         rdf:about="">
        <dc:format>image/svg+xml</dc:format>
        <dc:type
           rdf:resource="http://purl.org/dc/dcmitype/StillImage" />
        <dc:title></dc:title>
      </cc:Work>
    </rdf:RDF>
  </metadata>
  <g
     inkscape:label="Layer 1"
     inkscape:groupmode="layer"
     id="layer1"
     transform="translate(0,-902.36)">
    <path
       style="opacity:0.56999984;fill:#ff6600;stroke:none"
       d="m -52.409703,924.20031 -0.114319,7.83087 c -1.01854,-3.70452 -6.446241,-2.66071 -13.375349,0 6.105241,-2.61029 12.555675,-5.22058 13.489668,-7.83087 z"
       id="path2993"
       inkscape:connector-curvature="0"
       sodipodi:nodetypes="cccc" />
    <path
       sodipodi:nodetypes="cccc"
       inkscape:connector-curvature="0"
       id="path2997"
       d="m -52.409703,937.39732 -0.114319,6.36453 c -1.01854,-3.70452 -11.133328,-1.42301 -18.062437,1.2377 6.105241,-2.42504 17.242763,-4.79618 18.176756,-7.60223 z"
       style="opacity:0.56999984;fill:#ff6600;stroke:none" />
    <path
       style="opacity:0.56999984;fill:#ff6600;stroke:none"
       d="m -52.409703,950.90666 -0.114319,7.83086 c -1.01854,-3.70452 -3.536149,-3.22656 -9.333554,-1.61671 6.105241,-2.61029 8.51388,-3.60387 9.447873,-6.21415 z"
       id="path2999"
       inkscape:connector-curvature="0"
       sodipodi:nodetypes="cccc" />
    <path
       sodipodi:nodetypes="cccc"
       inkscape:connector-curvature="0"
       id="path3001"
       d="m -52.409703,961.35302 -0.08591,6.9158 c -0.765431,-2.784 -13.106053,-1.1491 -18.313259,0.8504 4.73708,-2.0113 17.890688,-5.8691 18.399169,-7.7662 z"
       style="opacity:0.56999984;fill:#ff6600;stroke:none" />
    <path
       style="opacity:0.56999984;fill:#ff6600;stroke:none"
       d="m -52.409703,971.47862 -0.08591,5.8849 c -0.765431,-2.784 -4.844332,-1.9996 -10.051538,0 4.588072,-1.9617 9.435555,-3.9233 10.137448,-5.8849 z"
       id="path3003"
       inkscape:connector-curvature="0"
       sodipodi:nodetypes="cccc" />
    <path
       sodipodi:nodetypes="cccc"
       inkscape:connector-curvature="0"
       id="path3005"
       d="m -52.409703,984.38262 -0.08591,5.8849 c -0.765431,-2.784 -4.844332,-1.9996 -10.051538,0 4.588072,-1.9617 9.435555,-3.9233 10.137448,-5.8849 z"
       style="opacity:0.56999984;fill:#ff6600;stroke:none" />
    <path
       style="opacity:0.56999984;fill:#ff6600;stroke:none"
       d="m -52.409703,994.30012 -0.08591,4.7829 c -0.765431,-2.7839 -8.366665,-1.0694 -13.573871,0.93008 4.588072,-1.82238 12.957888,-3.60428 13.659781,-5.71298 z"
       id="path3007"
       inkscape:connector-curvature="0"
       sodipodi:nodetypes="cccc" />
    <path
       sodipodi:nodetypes="cccc"
       inkscape:connector-curvature="0"
       id="path3009"
       d="m -52.409703,1004.4523 -0.08591,5.8849 c -0.765431,-2.784 -2.657406,-2.4248 -7.01414,-1.215 4.588071,-1.9616 6.398157,-2.7083 7.10005,-4.6699 z"
       style="opacity:0.56999984;fill:#ff6600;stroke:none" />
    <path
       style="fill:#ff9955;stroke:none"
       d="M 38,903.97527 5.5985503,914.01485 37.993886,905.92499 z"
       id="path3015"
       inkscape:connector-curvature="0"
       sodipodi:nodetypes="cccc" />
    <path
       sodipodi:nodetypes="cccc"
       inkscape:connector-curvature="0"
       id="path3017"
       d="M 38,911.97527 2.4800472,922.56059 37.993886,913.92499 z"
       style="fill:#ff9955;stroke:none" />
    <path
       style="fill:#ff9955;stroke:none"
       d="M 38,911.97527 2.4800472,922.56059 37.993886,913.92499 z"
       id="path3019"
       inkscape:connector-curvature="0"
       sodipodi:nodetypes="cccc" />
    <path
       sodipodi:nodetypes="cccc"
       inkscape:connector-curvature="0"
       id="path3021"
       d="M 38,911.97527 2.4800472,922.56059 37.993886,913.92499 z"
       style="fill:#ff9955;stroke:none" />
    <path
       sodipodi:nodetypes="cccc"
       inkscape:connector-curvature="0"
       id="path3021-9"
       d="m 38,919.98834 -18.926465,6.23022 18.920351,-2.2805 z"
       style="fill:#ff9955;stroke:none" />
    <path
       style="fill:#ff9955;stroke:none"
       d="M 38,927.98834 8.0028489,935.15411 37.993886,929.93806 z"
       id="path3041"
       inkscape:connector-curvature="0"
       sodipodi:nodetypes="cccc" />
    <path
       style="fill:#ff9955;stroke:none"
       d="M 38,936.06496 2.7793568,947.93239 37.993886,940.01468 z"
       id="path3041-1"
       inkscape:connector-curvature="0"
       sodipodi:nodetypes="cccc" />
  </g>
</svg>
